<svg width="1840" height="876" viewBox="0 0 1840 876" fill="none" xmlns="http://www.w3.org/2000/svg">
    <circle cx="582.5" cy="838.5" r="37.5" fill="#D0D1D3"/>
    <circle cx="671.5" cy="749.5" r="37.5" fill="#D0D1D3"/>
    <circle cx="485.5" cy="749.5" r="37.5" fill="#D0D1D3"/>
    <circle cx="307.5" cy="749.5" r="37.5" fill="#D0D1D3"/>
    <circle cx="126.5" cy="749.5" r="37.5" fill="#D0D1D3"/>
    <circle cx="126.5" cy="571.5" r="37.5" fill="#D0D1D3"/>
    <circle cx="306.5" cy="571.5" r="37.5" fill="#D0D1D3"/>
    <circle cx="306.5" cy="393.5" r="37.5" fill="#D0D1D3"/>
    <circle cx="126.5" cy="393.5" r="37.5" fill="#D0D1D3"/>
    <circle cx="667.5" cy="215.5" r="37.5" fill="#D0D1D3"/>
    <circle cx="485.5" cy="215.5" r="37.5" fill="#D0D1D3"/>
    <circle cx="306.5" cy="215.5" r="37.5" fill="#D0D1D3"/>
    <circle cx="217.5" cy="571.5" r="37.5" fill="#D0D1D3"/>
    <circle cx="306.5" cy="482.5" r="37.5" fill="#D0D1D3"/>
    <circle cx="217.5" cy="482.5" r="37.5" fill="#D0D1D3"/>
    <circle cx="756.5" cy="215.5" r="37.5" fill="#D0D1D3"/>
    <circle cx="485.5" cy="37.5" r="37.5" fill="#D0D1D3"/>
    <circle cx="763.5" cy="838.5" r="37.5" fill="#D0D1D3"/>
    <circle cx="674.5" cy="838.5" r="37.5" fill="#D0D1D3"/>
    <circle cx="757.5" cy="749.5" r="37.5" fill="#D0D1D3"/>
    <circle cx="757.5" cy="660.5" r="37.5" fill="#D0D1D3"/>
    <circle cx="577.5" cy="749.5" r="37.5" fill="#D0D1D3"/>
    <circle cx="666.5" cy="660.5" r="37.5" fill="#D0D1D3"/>
    <circle cx="577.5" cy="660.5" r="37.5" fill="#D0D1D3"/>
    <circle cx="396.5" cy="749.5" r="37.5" fill="#D0D1D3"/>
    <circle cx="485.5" cy="660.5" r="37.5" fill="#D0D1D3"/>
    <circle cx="396.5" cy="660.5" r="37.5" fill="#D0D1D3"/>
    <circle cx="576.5" cy="215.5" r="37.5" fill="#D0D1D3"/>
    <circle cx="665.5" cy="126.5" r="37.5" fill="#D0D1D3"/>
    <circle cx="576.5" cy="126.5" r="37.5" fill="#D0D1D3"/>
    <circle cx="397.5" cy="215.5" r="37.5" fill="#D0D1D3"/>
    <circle cx="486.5" cy="126.5" r="37.5" fill="#D0D1D3"/>
    <circle cx="397.5" cy="126.5" r="37.5" fill="#D0D1D3"/>
    <circle cx="217.5" cy="215.5" r="37.5" fill="#D0D1D3"/>
    <circle cx="126.5" cy="215.5" r="37.5" fill="#D0D1D3"/>
    <circle cx="217.5" cy="126.5" r="37.5" fill="#D0D1D3"/>
    <circle cx="126.5" cy="660.5" r="37.5" fill="#D0D1D3"/>
    <circle cx="37.5" cy="660.5" r="37.5" fill="#D0D1D3"/>
    <circle cx="217.5" cy="749.5" r="37.5" fill="#D0D1D3"/>
    <circle cx="306.5" cy="660.5" r="37.5" fill="#D0D1D3"/>
    <circle cx="217.5" cy="660.5" r="37.5" fill="#D0D1D3"/>
    <circle cx="126.5" cy="304.5" r="37.5" fill="#D0D1D3"/>
    <circle cx="37.5" cy="304.5" r="37.5" fill="#D0D1D3"/>
    <circle cx="217.5" cy="393.5" r="37.5" fill="#D0D1D3"/>
    <circle cx="306.5" cy="304.5" r="37.5" fill="#D0D1D3"/>
    <circle cx="217.5" cy="304.5" r="37.5" fill="#D0D1D3"/>
    <circle cx="217.5" cy="571.5" r="37.5" fill="#D0D1D3"/>
    <circle cx="217.5" cy="482.5" r="37.5" fill="#D0D1D3"/>
    <circle cx="217.5" cy="393.5" r="37.5" fill="#D0D1D3"/>
    <circle cx="306.5" cy="304.5" r="37.5" fill="#D0D1D3"/>
    <circle cx="217.5" cy="304.5" r="37.5" fill="#D0D1D3"/>
    <circle cx="757.5" cy="571.5" r="37.5" fill="#D0D1D3"/>
    <circle cx="757.5" cy="482.5" r="37.5" fill="#D0D1D3"/>
    <circle cx="757.5" cy="393.5" r="37.5" fill="#D0D1D3"/>
    <circle cx="757.5" cy="304.5" r="37.5" fill="#D0D1D3"/>
    <path d="M710 571.5C710 592.211 693.211 609 672.5 609C651.789 609 635 592.211 635 571.5C635 550.789 651.789 534 672.5 534C693.211 534 710 550.789 710 571.5Z" fill="#D0D1D3"/>
    <circle cx="671.5" cy="482.5" r="37.5" fill="#D0D1D3"/>
    <circle cx="582.5" cy="571.5" r="37.5" fill="#D0D1D3"/>
    <circle cx="582.5" cy="482.5" r="37.5" fill="#D0D1D3"/>
    <path d="M710 393.5C710 414.211 693.211 431 672.5 431C651.789 431 635 414.211 635 393.5C635 372.789 651.789 356 672.5 356C693.211 356 710 372.789 710 393.5Z" fill="#D0D1D3"/>
    <circle cx="582.5" cy="393.5" r="37.5" fill="#D0D1D3"/>
    <circle cx="671.5" cy="304.5" r="37.5" fill="#D0D1D3"/>
    <circle cx="582.5" cy="304.5" r="37.5" fill="#D0D1D3"/>
    <path d="M523 571.5C523 592.211 506.211 609 485.5 609C464.789 609 448 592.211 448 571.5C448 550.789 464.789 534 485.5 534C506.211 534 523 550.789 523 571.5Z" fill="#D0D1D3"/>
    <circle cx="484.5" cy="482.5" r="37.5" fill="#D0D1D3"/>
    <circle cx="395.5" cy="571.5" r="37.5" fill="#D0D1D3"/>
    <circle cx="395.5" cy="482.5" r="37.5" fill="#D0D1D3"/>
    <path d="M523 393.5C523 414.211 506.211 431 485.5 431C464.789 431 448 414.211 448 393.5C448 372.789 464.789 356 485.5 356C506.211 356 523 372.789 523 393.5Z" fill="#D0D1D3"/>
    <circle cx="395.5" cy="393.5" r="37.5" fill="#D0D1D3"/>
    <circle cx="484.5" cy="304.5" r="37.5" fill="#D0D1D3"/>
    <circle cx="395.5" cy="304.5" r="37.5" fill="#D0D1D3"/>
    <circle cx="38.5" cy="571.5" r="37.5" fill="#D0D1D3"/>
    <circle cx="127.5" cy="482.5" r="37.5" fill="#D0D1D3"/>
    <circle cx="38.5" cy="482.5" r="37.5" fill="#D0D1D3"/>
    <rect x="345" y="270" width="1495" height="392" fill="black"/>
    <path fill-rule="evenodd" clip-rule="evenodd" d="M408 382.037H438.044V436.037L487.616 435.537C501.019 437.181 518.62 441.486 530.178 452.537C540.816 462.276 546.251 468.097 552.211 481.036C555.926 489.575 557.483 494.514 559.221 503.536C559.983 512.343 559.923 517.146 559.221 525.536C558.286 538.033 556.605 544.54 552.211 555.536C543.396 570.888 536.088 577.184 522.667 588.036C514.098 593.012 507.145 596.536 497.13 598.036C487.116 599.536 481.107 599.536 470.591 598.036C460.076 596.536 453.734 592.602 445.054 588.036C430.265 577.196 424.651 569.759 416.512 555.536C411.674 545.248 409.78 538.713 408 525.536V382.037ZM487.616 469.037H438.044V523.036C444.558 544.067 450.273 554.058 470.591 563.036C481.681 565.875 487.449 565.704 497.13 563.036C512.05 557.572 517.035 552.104 522.667 540.036C528.684 523.416 528.849 513.067 522.667 494.536C514.986 478.238 506.939 473.049 487.616 469.037Z" fill="white"/>
    <path fill-rule="evenodd" clip-rule="evenodd" d="M727.967 598.536V514.536C726.215 499.324 724.201 491.346 717.953 478.537C710.263 465.051 705.02 459.204 694.418 451.037C685.512 444.433 680.006 441.711 669.382 438.537C656.01 436.21 648.704 436.541 635.833 438.537C618.74 442.515 611.519 446.998 600.781 457.037C588.647 468.692 585.111 476.478 579.25 490.536C574.178 510.129 573.961 520.953 577.748 540.036C582.664 555.759 586.564 563.791 597.276 575.536C611.968 588.966 621.143 594.53 640.339 598.536H727.967ZM696.421 512.536C697.423 520.536 696.421 566.036 696.421 566.036C696.421 566.036 649.853 566.536 644.345 566.036C638.837 565.536 634.1 562.864 627.821 558.536C621.36 554.08 618.096 550.854 612.799 544.036C608.726 536.328 607.594 531.678 606.79 523.036C606.608 517.565 606.612 514.613 606.79 509.536C608.042 501.405 609.402 497.745 612.799 492.536C617.184 486.319 619.809 483.012 625.818 478.537C632.273 473.056 636.278 472.51 643.344 471.037C649.991 470.439 653.358 470.037 660.369 471.037C667.379 472.037 671.546 475.121 676.893 478.537C684.737 485.397 687.93 489.51 691.915 498.036C693.87 501.309 695.42 504.536 696.421 512.536Z" fill="white"/>
    <path d="M747.997 598.536H778.04V512.536C778.04 495.536 790.465 481.849 807.584 473.037C820.384 469.599 827.154 469.702 838.629 473.037L846.641 476.536L868.673 453.037L856.405 445.037L850.647 442.537L844.137 440.037C830.117 435.037 817.588 435.726 801.074 440.037C788.556 444.702 782.731 448.654 773.534 457.036C764.495 466.013 760.857 471.468 755.508 481.536C750.598 493.058 747.997 498.536 747.997 512.536V598.536Z" fill="white"/>
    <path d="M980.336 540.536H1012.88C1011.29 548.486 1009.27 553.496 1002.37 564.036C995.395 574.219 990.648 579.211 980.336 586.536C970.131 594.007 964.298 596.128 953.797 598.036C944.653 599.103 939.313 599.184 929.261 598.036C917.175 595.687 911.034 592.542 900.219 586.536C889.502 579.139 884.923 574.055 878.187 564.036C872.88 555.392 870.504 550.221 867.171 540.536C864.17 523.548 863.944 514.024 867.171 497.036C872.449 479.552 877.437 470.574 891.206 456.536C899.612 449.373 904.942 446.384 914.74 441.537C920.072 439.477 923.253 438.037 930.764 437.537C938.275 437.037 1010.88 437.537 1010.88 437.537V469.537C1010.88 469.537 946.286 468.037 935.771 469.537C925.255 471.037 920.2 474.447 911.736 481.036C905.008 487.526 902.37 491.806 898.717 500.036C894.336 516.515 894.552 525.427 901.22 540.536C909.154 553.425 913.739 560.036 926.257 564.036C938.775 568.036 944.194 566.282 955.299 564.036C969.243 556.628 974.259 551.286 980.336 540.536Z" fill="white"/>
    <path d="M1179.63 598.036V566.536H1099.51C1089.14 564.402 1083.8 562.169 1075.47 555.536C1068.29 548.347 1065.14 543.743 1060.95 534.536C1058.46 522.041 1057.85 514.974 1060.95 502.036C1064.75 492.272 1067.8 487.374 1075.47 480.036C1083.89 473.686 1089.14 471.567 1099.51 470.537C1102.44 470.486 1104.09 470.479 1107.02 470.537C1116.85 471.295 1121.94 473.646 1130.56 480.036C1137.66 486.008 1139.82 489.781 1143.57 496.536L1093 515.536L1104.02 546.036L1179.63 521.536C1179.75 515.864 1179.73 513.504 1179.63 510.036C1177.52 499.941 1176.22 494.734 1173.62 486.536C1167.02 473.119 1162.79 466.229 1153.09 456.536C1143.13 448.14 1137.31 444.641 1126.55 440.537C1105.78 435.474 1096.23 436.477 1080.98 440.537C1070.04 444.244 1064.07 447.441 1053.94 456.536C1047 463.028 1043.55 467.226 1038.42 476.036C1019.4 509.523 1029.43 549.267 1040.92 564.036C1052.42 578.805 1067.45 594.722 1091.5 598.036H1179.63Z" fill="white"/>
    <path d="M1276.27 598.036V566.536C1261.14 565.163 1253.58 560.616 1241.22 548.036C1234.71 538.71 1232.93 532.745 1231.2 521.536V409.537H1201.16V521.536C1203.59 540.883 1206.75 550.438 1215.68 565.036C1224.06 576.871 1229.3 582.726 1241.22 589.536C1250.53 595.031 1256.29 596.736 1267.26 598.036H1276.27Z" fill="white"/>
    <path fill-rule="evenodd" clip-rule="evenodd" d="M1329.35 593.536C1351.5 601 1364.97 600.612 1384.93 593.536C1405.94 582.471 1415.47 572.536 1424.99 553.536C1434.5 534.536 1435 500.536 1424.99 482.036C1414.97 463.536 1406.5 453 1385.93 443.037C1363.86 435.53 1350.5 434 1327.84 443.037C1307.5 453.5 1299.64 462.203 1288.79 482.036C1279.37 511.008 1279.22 526.664 1288.79 553.536C1300.2 574.614 1308.89 583.606 1329.35 593.536ZM1376.92 561.536C1362.29 567.162 1353 569 1337.86 561.536C1324.64 552.937 1319.24 547.149 1314.32 534.536C1311.17 521.35 1311.96 514.516 1314.32 502.536C1320.07 488.113 1325.33 482.091 1337.86 474.537C1350.88 469.037 1367.9 469.537 1376.92 474.537C1389.2 483.331 1394.84 489.031 1399.45 502.536C1402.89 515.445 1402.5 522.406 1399.45 534.536C1394.26 547.552 1389.48 553.564 1376.92 561.536Z" fill="white"/>
    <path d="M1455.53 598.036H1486.07V470.037C1486.07 470.037 1510.81 470 1533.14 470.037C1555.47 470.073 1575.2 495.536 1575.2 512.036V598.036H1606.25C1606.25 598.036 1604.75 554.036 1606.25 512.036C1607.75 470.036 1564.19 437.037 1531.14 437.037H1455.53V598.036Z" fill="white"/>
    <path fill-rule="evenodd" clip-rule="evenodd" d="M1777 598.036C1777 598.036 1777.84 526.832 1777 510.536C1776.16 494.24 1769.7 480.408 1761.98 470.037C1749.15 453.993 1741.77 448.619 1728.43 442.537C1707.84 435.845 1695.69 434.822 1671.85 442.537C1656.74 450.864 1649.95 457.22 1639.3 470.037C1628.6 486.568 1625.93 497.688 1624.78 519.536C1626.31 539.83 1628.86 550.259 1639.3 565.536C1649.28 578.676 1655.77 585.189 1671.85 592.536C1679.05 595.404 1683.36 598.036 1690.87 598.036H1777ZM1745.95 512.036V565.536H1695.88C1684.86 565.536 1679.5 561.5 1671.85 555.536C1664.19 549.573 1658.65 543.073 1656.82 532.536C1655 522 1655 516 1656.82 505.536C1658.65 495.073 1663.95 489.427 1671.85 480.536C1681.56 472.068 1688.45 471.181 1700.89 470.037C1713.13 470.627 1719.22 472.804 1728.43 480.536C1739.08 489.537 1743.12 496.269 1745.95 512.036Z" fill="white"/>
    <path d="M1461.06 384.035H1479.17V351.535H1489.74V345.535H1479.17V339.035C1479.17 337.035 1480.18 336.035 1482.19 336.035H1489.74V330.035H1473.64C1469.11 329.535 1460.55 334.535 1460.55 337.535V345.535H1452V351.535H1460.55V384.035H1461.06Z" fill="#CB3330"/>
    <path d="M1496.78 346.035H1515.9V384.035H1496.78V346.035Z" fill="#CB3330"/>
    <path d="M1496.78 332.035H1515.9V339.035H1496.78V332.035Z" fill="#CB3330"/>
    <path d="M1529.99 331.035H1549.11V384.035H1529.99V331.035Z" fill="#CB3330"/>
    <path d="M1563.2 346.035V384.035H1582.32V353.035C1582.67 352.158 1582.98 351.692 1584.33 351.035C1587.08 350.463 1588.63 350.437 1591.37 351.035C1591.37 351.035 1593.31 351.932 1593.39 353.035V384.035H1613.01V353.035C1613.57 351.896 1614.02 351.475 1615.02 351.035C1618.03 350.44 1619.56 350.46 1622.07 351.035C1623.59 351.606 1623.98 352.061 1624.08 353.035V384.035H1643.7V351.035C1642.67 348.252 1641.69 346.535 1638.67 346.035C1635.65 345.535 1618.55 346.035 1618.55 346.035C1614.95 346.385 1613.47 347.1 1611.5 349.035C1609.84 346.858 1608.29 346.334 1604.96 346.035H1586.34C1585.34 346.035 1584.83 347.035 1584.33 347.035C1583.83 347.035 1582.77 345.907 1582.32 346.035H1563.2Z" fill="#CB3330"/>
    <path fill-rule="evenodd" clip-rule="evenodd" d="M1687.98 370.035H1706.09V375.035C1706.09 378.535 1701.38 382.516 1697.54 383.535C1693.7 384.553 1670.56 384.542 1667.35 383.535L1667.35 383.533C1664.14 382.525 1657.79 380.533 1657.79 377.535V355.035C1657.79 349.535 1663.15 347.024 1666.85 346.035C1670.54 345.046 1689.69 344.398 1695.53 346.035C1701.37 347.672 1706.09 350.035 1706.09 353.035V365.035H1674.9V377.535C1674.9 381.035 1687.98 381.535 1687.98 377.535V370.035ZM1687.98 360.035H1674.9V353.535C1674.9 348.035 1687.98 348.035 1687.98 353.535V360.035Z" fill="#CB3330"/>
    <path d="M1461.06 384.035H1479.17V351.535H1489.74V345.535H1479.17V339.035C1479.17 337.035 1480.18 336.035 1482.19 336.035H1489.74V330.035H1473.64C1469.11 329.535 1460.55 334.535 1460.55 337.535V345.535H1452V351.535H1460.55V384.035H1461.06Z" fill="#CB3330"/>
    <path d="M1496.78 346.035H1515.9V384.035H1496.78V346.035Z" fill="#CB3330"/>
    <path d="M1496.78 332.035H1515.9V339.035H1496.78V332.035Z" fill="#CB3330"/>
    <path d="M1529.99 331.035H1549.11V384.035H1529.99V331.035Z" fill="#CB3330"/>
    <path d="M1563.2 346.035V384.035H1582.32V353.035C1582.67 352.158 1582.98 351.692 1584.33 351.035C1587.08 350.463 1588.63 350.437 1591.37 351.035C1591.37 351.035 1593.31 351.932 1593.39 353.035V384.035H1613.01V353.035C1613.57 351.896 1614.02 351.475 1615.02 351.035C1618.03 350.44 1619.56 350.46 1622.07 351.035C1623.59 351.606 1623.98 352.061 1624.08 353.035V384.035H1643.7V351.035C1642.67 348.252 1641.69 346.535 1638.67 346.035C1635.65 345.535 1618.55 346.035 1618.55 346.035C1614.95 346.385 1613.47 347.1 1611.5 349.035C1609.84 346.858 1608.29 346.334 1604.96 346.035H1586.34C1585.34 346.035 1584.83 347.035 1584.33 347.035C1583.83 347.035 1582.77 345.907 1582.32 346.035H1563.2Z" fill="#CB3330"/>
    <path fill-rule="evenodd" clip-rule="evenodd" d="M1687.98 370.035H1706.09V375.035C1706.09 378.535 1701.38 382.516 1697.54 383.535C1693.7 384.553 1670.56 384.542 1667.35 383.535L1667.35 383.533C1664.14 382.525 1657.79 380.533 1657.79 377.535V355.035C1657.79 349.535 1663.15 347.024 1666.85 346.035C1670.54 345.046 1689.69 344.398 1695.53 346.035C1701.37 347.672 1706.09 350.035 1706.09 353.035V365.035H1674.9V377.535C1674.9 381.035 1687.98 381.535 1687.98 377.535V370.035ZM1687.98 360.035H1674.9V353.535C1674.9 348.035 1687.98 348.035 1687.98 353.535V360.035Z" fill="#CB3330"/>
    <path d="M1752.38 357.535H1768.49V353.035C1768.49 349.535 1763.96 345.035 1754.4 345.035H1733.26C1725.79 345.462 1720.18 350.535 1720.18 353.035V356.035C1720.01 358.718 1721.58 361.834 1727.23 363.035L1736.28 365.535C1736.28 365.535 1747.35 367.035 1749.37 369.035C1751.29 370.949 1751.32 371.348 1751.37 371.952L1751.38 372.035C1751.52 373.273 1751.48 373.912 1751.38 375.035C1751.1 376.615 1750.64 377.035 1749.37 378.035C1748.1 379.035 1747.69 378.88 1746.35 379.035H1743.33C1741.97 378.954 1741.32 378.702 1740.31 378.035C1738.79 376.953 1738.27 376.279 1737.36 375.127L1737.29 375.035V370.035H1720.18C1720.18 370.035 1720.18 376.535 1721.19 378.535C1722.2 380.535 1727.73 384.035 1731.25 384.035H1757.92C1764.34 383.863 1766.82 381.576 1770.5 376.035C1770.5 376.035 1771 371.535 1770.5 369.035C1770 366.535 1765.24 362.934 1759.93 362.035C1754.63 361.136 1751.5 360.695 1745.34 359.035C1745.34 359.035 1742.32 358.035 1740.31 357.035C1738.3 356.035 1738.8 353.035 1740.31 352.035L1740.81 351.535L1741.32 351.035C1744.73 349.895 1746.35 350.035 1749.37 351.035C1752.38 352.035 1752.38 354.035 1752.38 354.035V357.535Z" fill="#CB3330"/>
</svg>
